<svg xmlns="http://www.w3.org/2000/svg" width="100%" height="100%" viewBox="0 0 1058 189">
    <g>
        <path style="fill: #333333" d="M57 0l953 0 48 0 0 49 0 45 0
        46c0,27 -22,49 -48,49l-71 0 -891 0 -48 0 0 -49 0 -80 0 -11c0,-27 22,-49
        48,-49l9 0z"></path>
        <path style="fill: #fff" d="M79 120c4,0 7,-1 8,-2 2,-1 3,-2 3,-4
        0,-3 -1,-4 -3,-6 -2,-1 -5,-3 -9,-4 -3,-1 -5,-2 -7,-3 -3,-1 -5,-3 -6,-4
        -2,-2 -3,-3 -4,-5 -1,-2 -1,-5 -1,-8 0,-6 2,-10 6,-14 4,-3 10,-5 17,-5
        4,0 8,1 11,1 4,1 6,2 8,2l-3 12c-2,-1 -4,-1 -6,-2 -3,0 -5,-1 -9,-1 -3,0
        -5,1 -7,2 -2,1 -3,2 -3,4 0,2 0,2 1,3 0,1 1,2 2,2 0,1 2,2 3,3 2,0 3,1 5,2
        4,1 7,2 9,4 3,1 5,2 6,4 2,1 3,3 4,5 0,2 1,5 1,7 0,6 -2,11 -7,14 -4,3
        -11,5 -19,5 -6,0 -10,-1 -14,-2 -3,0 -5,-1 -7,-2l3 -12c2,1 5,2 8,3 3,0
        6,1 10,1zm82 -21c0,-7 -2,-12 -5,-15 -3,-4 -7,-6 -14,-6 -1,0 -3,0 -4,0
        -2,0 -3,1 -5,1l0 36c2,1 3,2 5,3 3,1 5,1 7,1 6,0 9,-2 12,-5 2,-4 4,-9
        4,-15zm15 0c0,4 -1,9 -2,13 -1,4 -3,7 -6,10 -2,3 -5,6 -8,7 -4,2 -8,3
        -12,3 -3,0 -6,-1 -9,-1 -2,-1 -4,-2 -6,-3l0 25 -14 0 0 -84c3,-1 6,-2
        11,-2 4,-1 9,-2 13,-2 5,0 10,1 14,3 4,1 7,4 10,6 3,3 5,7 6,11 2,4 3,9
        3,14zm11 0c0,-6 1,-11 3,-15 1,-4 4,-8 6,-10 3,-3 6,-5 10,-7 3,-1 7,-2
        11,-2 9,0 15,3 20,8 5,6 8,14 8,25 0,0 0,1 0,2 0,1 -1,2 -1,3l-41 0c0,5
        2,9 5,12 3,3 8,4 14,4 3,0 7,0 10,-1 3,0 5,-1 7,-2l1 12c0,1 -1,1 -3,1
        -1,1 -3,1 -5,2 -2,0 -3,0 -6,1 -2,0 -4,0 -6,0 -6,0 -10,-1 -15,-3 -4,-1
        -7,-4 -10,-7 -2,-2 -4,-6 -6,-10 -1,-4 -2,-8 -2,-13zm43 -7c0,-2 0,-4
        -1,-5 0,-2 -1,-4 -2,-5 -1,-2 -3,-3 -4,-3 -2,-1 -4,-1 -6,-1 -2,0 -4,0
        -6,1 -2,1 -3,2 -4,3 -1,1 -2,3 -3,5 -1,2 -1,3 -1,5l27 0zm27 7c0,-6 0,-11
        2,-15 2,-4 4,-8 7,-10 2,-3 6,-5 9,-7 4,-1 7,-2 11,-2 9,0 16,3 21,8 4,6
        7,14 7,25 0,0 0,1 0,2 0,1 0,2 0,3l-42 0c0,5 2,9 5,12 3,3 8,4 14,4 4,0
        7,0 10,-1 3,0 5,-1 7,-2l2 12c-1,1 -2,1 -4,1 -1,1 -3,1 -4,2 -2,0 -4,0
        -6,1 -2,0 -5,0 -7,0 -5,0 -10,-1 -14,-3 -4,-1 -8,-4 -10,-7 -3,-2 -5,-6
        -6,-10 -2,-4 -2,-8 -2,-13zm42 -7c0,-2 0,-4 -1,-5 0,-2 -1,-4 -2,-5 -1,-2
        -3,-3 -4,-3 -2,-1 -4,-1 -6,-1 -2,0 -4,0 -6,1 -1,1 -3,2 -4,3 -1,1 -2,3
        -3,5 0,2 -1,3 -1,5l27 0zm42 6c0,7 2,12 5,16 3,3 7,5 12,5 3,0 5,0 6,0 2,0
        3,-1 4,-1l0 -36c-1,-1 -3,-2 -5,-3 -2,-1 -4,-1 -7,-1 -5,0 -9,2 -11,6 -3,3
        -4,8 -4,14zm42 30c-3,1 -6,2 -11,3 -4,1 -9,1 -14,1 -5,0 -9,-1 -13,-2
        -4,-2 -8,-4 -10,-7 -3,-3 -5,-6 -7,-10 -1,-5 -2,-9 -2,-14 0,-5 1,-10
        2,-14 1,-4 3,-7 5,-10 3,-3 6,-6 9,-7 4,-2 8,-3 12,-3 3,0 6,1 8,2 3,0 5,1
        6,2l0 -30 15 -3 0 92zm55 -31c0,-7 -1,-12 -3,-14 -1,-3 -4,-5 -9,-5 -1,0
        -3,0 -5,0 -2,1 -4,1 -5,1l0 51 -14 0 0 -61c3,-1 6,-2 11,-2 4,-1 9,-2
        14,-2 5,0 8,1 11,2 3,1 5,3 7,5 1,-1 2,-2 4,-2 1,-1 2,-2 4,-2 2,-1 4,-1
        6,-2 1,0 3,-1 5,-1 5,0 9,1 12,3 4,1 6,3 8,6 2,2 3,5 4,9 0,3 1,7 1,12l0
        35 -15 0 0 -33c0,-7 -1,-12 -2,-14 -2,-3 -5,-5 -10,-5 -2,0 -4,0 -6,1 -2,1
        -4,2 -5,3 1,2 1,4 1,6 1,2 1,5 1,7l0 35 -15 0 0 -33zm91 23c5,0 8,0
        10,-1l0 -16c0,0 -2,0 -3,-1 -2,0 -3,0 -5,0 -2,0 -3,0 -5,0 -2,1 -3,1 -5,2
        -1,0 -2,1 -3,2 -1,2 -1,3 -1,5 0,3 1,6 3,7 2,1 5,2 9,2zm-1 -55c5,0 9,1
        12,2 3,1 6,3 8,5 2,2 3,5 4,8 1,3 2,7 2,10l0 39c-3,0 -6,1 -11,2 -4,0 -9,1
        -15,1 -4,0 -7,-1 -11,-1 -3,-1 -5,-2 -8,-4 -2,-2 -4,-4 -5,-6 -1,-3 -2,-6
        -2,-10 0,-4 1,-7 2,-9 2,-3 4,-5 6,-6 3,-2 5,-3 9,-4 3,0 6,-1 10,-1 1,0
        3,0 5,1 1,0 3,0 5,1l0 -3c0,-1 0,-3 0,-5 -1,-1 -1,-2 -2,-4 -1,-1 -3,-2
        -4,-2 -2,-1 -4,-1 -7,-1 -3,0 -6,0 -9,0 -3,1 -5,1 -7,2l-2 -12c2,0 5,-1
        8,-2 4,0 8,-1 12,-1zm59 55c4,0 7,-1 9,-2 2,-1 3,-2 3,-4 0,-3 -1,-4 -3,-6
        -2,-1 -5,-3 -10,-4 -2,-1 -5,-2 -7,-3 -2,-1 -4,-3 -6,-4 -1,-2 -3,-3 -4,-5
        0,-2 -1,-5 -1,-8 0,-6 2,-10 6,-14 5,-3 11,-5 18,-5 4,0 7,1 11,1 3,1 6,2
        7,2l-2 12c-2,-1 -4,-1 -7,-2 -2,0 -5,-1 -8,-1 -3,0 -6,1 -8,2 -1,1 -2,2
        -2,4 0,2 0,2 0,3 1,1 1,2 2,2 1,1 2,2 4,3 1,0 3,1 5,2 3,1 6,2 9,4 2,1 4,2
        6,4 1,1 2,3 3,5 1,2 1,5 1,7 0,6 -2,11 -6,14 -5,3 -11,5 -20,5 -5,0 -10,-1
        -13,-2 -4,0 -6,-1 -7,-2l2 -12c2,1 5,2 8,3 3,0 7,1 10,1zm39 -70l15 -2 0
        19 23 0 0 12 -23 0 0 26c0,5 1,9 2,11 2,2 5,3 9,3 2,0 5,0 7,-1 2,0 3,-1
        5,-1l2 11c-2,1 -4,2 -7,3 -2,0 -6,1 -9,1 -5,0 -9,-1 -12,-2 -3,-1 -5,-3
        -7,-5 -2,-3 -3,-5 -4,-9 0,-3 -1,-7 -1,-11l0 -55zm47 49c0,-6 1,-11 3,-15
        1,-4 3,-8 6,-10 3,-3 6,-5 10,-7 3,-1 7,-2 11,-2 8,0 15,3 20,8 5,6 7,14
        7,25 0,0 0,1 0,2 0,1 0,2 0,3l-42 0c1,5 3,9 6,12 3,3 8,4 14,4 3,0 6,0
        9,-1 3,0 6,-1 7,-2l2 12c-1,1 -2,1 -3,1 -1,1 -3,1 -5,2 -2,0 -4,0 -6,1
        -2,0 -4,0 -6,0 -6,0 -11,-1 -15,-3 -4,-1 -7,-4 -10,-7 -3,-2 -5,-6 -6,-10
        -1,-4 -2,-8 -2,-13zm43 -7c0,-2 -1,-4 -1,-5 -1,-2 -2,-4 -3,-5 -1,-2 -2,-3
        -4,-3 -1,-1 -3,-1 -5,-1 -3,0 -5,0 -6,1 -2,1 -3,2 -5,3 -1,1 -2,3 -2,5
        -1,2 -1,3 -2,5l28 0zm66 -12c-1,0 -3,-1 -5,-1 -2,-1 -5,-1 -7,-1 -2,0 -4,0
        -6,1 -1,0 -3,0 -3,0l0 51 -15 0 0 -60c3,-1 6,-2 11,-3 4,-1 9,-2 14,-2 1,0
        2,1 3,1 1,0 3,0 4,0 1,0 3,1 4,1 1,0 2,0 3,1l-3 12zm29 40c4,0 6,-1 8,-2
        2,-1 3,-2 3,-4 0,-3 -1,-4 -3,-6 -2,-1 -5,-3 -9,-4 -3,-1 -5,-2 -8,-3
        -2,-1 -4,-3 -5,-4 -2,-2 -3,-3 -4,-5 -1,-2 -2,-5 -2,-8 0,-6 2,-10 7,-14
        4,-3 10,-5 17,-5 4,0 8,1 11,1 3,1 6,2 8,2l-3 12c-2,-1 -4,-1 -6,-2 -3,0
        -6,-1 -9,-1 -3,0 -5,1 -7,2 -2,1 -3,2 -3,4 0,2 0,2 0,3 1,1 1,2 2,2 1,1
        2,2 4,3 1,0 3,1 5,2 4,1 7,2 9,4 2,1 4,2 6,4 2,1 3,3 4,5 0,2 1,5 1,7 0,6
        -3,11 -7,14 -5,3 -11,5 -19,5 -6,0 -10,-1 -14,-2 -3,0 -6,-1 -7,-2l3
        -12c2,1 4,2 7,3 3,0 7,1 11,1zm88 -52c0,3 0,6 -1,9 -2,2 -3,5 -5,8 -2,2
        -4,5 -7,7 -2,3 -4,5 -7,8 -1,1 -3,2 -4,4 -2,2 -3,3 -5,5 -1,2 -3,3 -4,5
        -1,2 -1,3 -1,4l37 0 0 12 -54 0c0,0 0,-1 0,-2 0,-1 0,-2 0,-2 0,-4 1,-8
        2,-11 2,-3 3,-6 5,-9 2,-3 4,-6 7,-8 2,-3 5,-5 7,-8 2,-1 4,-3 6,-5 2,-2
        3,-4 5,-5 1,-2 2,-4 3,-6 1,-1 1,-3 1,-5 0,-4 -1,-7 -3,-9 -3,-2 -6,-3
        -9,-3 -3,0 -5,0 -7,1 -2,1 -3,2 -5,2 -1,1 -3,2 -4,3 -1,1 -2,2 -2,2l-8
        -10c4,-3 8,-6 12,-8 5,-2 10,-3 15,-3 9,0 16,2 20,7 4,4 6,10 6,17zm52
        -4c-2,3 -4,5 -6,8 -2,2 -4,5 -6,8 -2,3 -4,6 -6,9 -2,3 -3,6 -5,9l23 0 0
        -34zm14 -18l0 52 10 0 0 12 -10 0 0 20 -14 0 0 -20 -37 0 0 -10c2,-4 4,-8
        6,-13 3,-4 6,-9 9,-14 4,-5 7,-9 11,-14 4,-5 7,-9 11,-13l14 0z"></path>
        <circle fill="#fa541c" cx="1010" cy="112" r="18"></circle>
    </g>
</svg>